<svg width="156" height="155" viewBox="0 0 156 155" fill="none" xmlns="http://www.w3.org/2000/svg">
<g clip-path="url(#clip0_71_390)">
<path d="M16.2812 49.9907C16.2812 40.3875 19.639 32.228 26.3546 25.5124C33.0703 18.7968 41.2297 15.439 50.8329 15.439V26.8424C44.4029 26.8424 38.9373 29.093 34.4362 33.594C29.9352 38.0951 27.6847 43.5606 27.6847 49.9907H16.2812ZM37.4286 112.84C29.6766 105.088 25.7556 95.8614 25.6657 85.1609C25.5758 74.4604 29.35 65.2911 36.9882 57.6528L48.784 45.7522L51.5219 48.4899C53.5427 50.5108 54.5312 52.8422 54.4873 55.4841C54.4433 58.1261 53.4219 60.4465 51.4229 62.4454L49.9253 64.081C48.7611 65.2452 48.179 66.5921 48.179 68.1217C48.179 69.6513 48.7611 70.9983 49.9253 72.1625L50.4674 72.7047C52.2647 74.5019 53.1633 76.674 53.1633 79.221C53.1633 81.7681 52.2647 83.9402 50.4674 85.7374L44.8601 91.3448L49.9731 96.458L55.5805 90.8506C58.7736 87.6575 60.3702 83.7755 60.3702 79.2045C60.3702 74.6336 58.7846 70.7626 55.6135 67.5915L56.1077 68.0858L56.569 67.6244C57.9429 66.2505 59.0478 64.6994 59.8835 62.9711C60.7192 61.2428 61.2529 59.451 61.4844 57.5959L85.055 34.0582C86.1534 32.96 87.4179 32.4053 88.8487 32.3943C90.2795 32.3834 91.5441 32.927 92.6424 34.0253C93.7407 35.1236 94.2898 36.3937 94.2898 37.8354C94.2898 39.2772 93.7407 40.5473 92.6424 41.6456L67.9515 66.3364L72.2079 70.5929L106.268 36.4666C107.367 35.3683 108.642 34.8191 110.095 34.8191C111.548 34.8191 112.823 35.3683 113.921 36.4666C115.02 37.5649 115.563 38.8349 115.552 40.2767C115.542 41.7184 114.987 42.9884 113.889 44.0868L79.7951 78.1802L83.9857 82.4036L113.361 53.028C114.46 51.9297 115.73 51.386 117.171 51.397C118.613 51.408 119.883 51.9626 120.982 53.0609C122.08 54.1592 122.629 55.4183 122.629 56.838C122.629 58.2579 122.08 59.517 120.982 60.6153L91.573 89.9909L95.8294 94.2473L115.545 74.5319C116.643 73.4335 117.908 72.8843 119.339 72.8843C120.769 72.8843 122.034 73.4335 123.132 74.5319C124.231 75.6301 124.78 76.8946 124.78 78.3254C124.78 79.7562 124.231 81.0208 123.132 82.1191L92.241 112.906C84.6027 120.544 75.4673 124.352 64.8347 124.33C54.2021 124.308 45.0668 120.478 37.4286 112.84ZM103.348 137.057V125.654C109.778 125.654 115.243 123.403 119.744 118.902C124.246 114.401 126.496 108.936 126.496 102.506H137.899C137.899 112.109 134.542 120.268 127.826 126.984C121.11 133.699 112.951 137.057 103.348 137.057Z" fill="#F2E857"/>
<mask id="mask0_71_390" style="mask-type:alpha" maskUnits="userSpaceOnUse" x="9" y="8" width="134" height="134">
<path d="M15.2261 48.8332C15.2261 39.23 18.5839 31.0706 25.2994 24.3549C32.0151 17.6393 40.1745 14.2816 49.7778 14.2816V25.685C43.3477 25.685 37.8821 27.9355 33.3811 32.4365C28.88 36.9376 26.6295 42.4032 26.6295 48.8332H15.2261ZM36.3734 111.682C28.6214 103.93 24.7004 94.7039 24.6105 84.0034C24.5207 73.303 28.2948 64.1336 35.933 56.4953L47.7289 44.5948L50.4667 47.3325C52.4876 49.3533 53.4761 51.6847 53.4321 54.3267C53.3881 56.9686 52.3667 59.289 50.3678 61.288L48.8701 62.9235C47.7059 64.0877 47.1238 65.4346 47.1238 66.9642C47.1238 68.4939 47.7059 69.8408 48.8701 71.005L49.4122 71.5472C51.2095 73.3444 52.1081 75.5165 52.1081 78.0636C52.1081 80.6106 51.2095 82.7827 49.4122 84.5799L43.8049 90.1873L48.918 95.3005L54.5253 89.6931C57.7184 86.5 59.315 82.618 59.315 78.047C59.315 73.4762 57.7294 69.6052 54.5583 66.434L55.0525 66.9283L55.5138 66.467C56.8878 65.0931 57.9926 63.5419 58.8283 61.8136C59.664 60.0853 60.1977 58.2936 60.4293 56.4384L83.9998 32.9008C85.0982 31.8025 86.3627 31.2479 87.7935 31.2368C89.2243 31.2259 90.4889 31.7696 91.5872 32.8678C92.6855 33.9662 93.2346 35.2362 93.2346 36.6779C93.2346 38.1197 92.6855 39.3898 91.5872 40.4881L66.8963 65.1789L71.1527 69.4355L105.213 35.3091C106.311 34.2108 107.587 33.6616 109.04 33.6616C110.493 33.6616 111.768 34.2108 112.866 35.3091C113.965 36.4074 114.508 37.6774 114.497 39.1192C114.486 40.5609 113.932 41.831 112.833 42.9293L78.7399 77.0227L82.9305 81.2462L112.306 51.8705C113.405 50.7722 114.675 50.2286 116.116 50.2395C117.558 50.2505 118.828 50.8051 119.926 51.9034C121.025 53.0018 121.574 54.2608 121.574 55.6806C121.574 57.1004 121.025 58.3595 119.926 59.4579L90.5179 88.8334L94.7743 93.0898L114.49 73.3744C115.588 72.276 116.853 71.7269 118.284 71.7269C119.714 71.7269 120.979 72.276 122.077 73.3744C123.175 74.4726 123.725 75.7372 123.725 77.1679C123.725 78.5987 123.175 79.8633 122.077 80.9616L91.1859 111.748C83.5476 119.386 74.4121 123.194 63.7796 123.173C53.147 123.151 44.0116 119.32 36.3734 111.682ZM102.293 135.9V124.496C108.723 124.496 114.188 122.246 118.689 117.745C123.19 113.244 125.441 107.778 125.441 101.348H136.844C136.844 110.951 133.487 119.111 126.771 125.826C120.055 132.542 111.896 135.9 102.293 135.9Z" fill="#F2C84B"/>
</mask>
<g mask="url(#mask0_71_390)">
<rect x="131.207" y="93.2165" width="37.9134" height="49.591" transform="rotate(50.5857 131.207 93.2165)" fill="#F26457"/>
<rect x="35.5723" y="-2.84253" width="37.9134" height="49.591" transform="rotate(50.5857 35.5723 -2.84253)" fill="#F26457"/>
</g>
</g>
<defs>
<clipPath id="clip0_71_390">
<rect width="156" height="155" fill="white"/>
</clipPath>
</defs>
</svg>
